<svg width="40" height="36" viewBox="0 0 40 36" fill="none" xmlns="http://www.w3.org/2000/svg">
<rect width="40" height="36" rx="8" fill="#EDEDED"/>
<path d="M20 21L17 18M20 21C21.3968 20.4687 22.7369 19.7987 24 19M20 21V26C20 26 23.03 25.45 24 24C25.08 22.38 24 19 24 19M17 18C17.5321 16.6194 18.2022 15.2961 19 14.05C20.1652 12.187 21.7876 10.6531 23.713 9.5941C25.6384 8.53514 27.8027 7.98637 30 8C30 10.72 29.22 15.5 24 19M17 18H12C12 18 12.55 14.97 14 14C15.62 12.92 19 14 19 14M12.5 22.5C11 23.76 10.5 27.5 10.5 27.5C10.5 27.5 14.24 27 15.5 25.5C16.21 24.66 16.2 23.37 15.41 22.59C15.0213 22.219 14.5093 22.0046 13.9722 21.988C13.4352 21.9714 12.9109 22.1537 12.5 22.5Z" stroke="#212121" stroke-width="2" stroke-linecap="round" stroke-linejoin="round"/>
</svg>
