<svg width="40" height="36" viewBox="0 0 40 36" fill="none" xmlns="http://www.w3.org/2000/svg">
<rect width="40" height="36" rx="8" fill="#EDEDED"/>
<path d="M30 23.6504L20.83 27.8104C20.5694 27.9292 20.2864 27.9907 20 27.9907C19.7136 27.9907 19.4306 27.9292 19.17 27.8104L10 23.6504M30 18.6504L20.83 22.8104C20.5694 22.9292 20.2864 22.9907 20 22.9907C19.7136 22.9907 19.4306 22.9292 19.17 22.8104L10 18.6504M20.83 8.18036C20.5694 8.06151 20.2864 8 20 8C19.7136 8 19.4306 8.06151 19.17 8.18036L10.6 12.0804C10.4225 12.1586 10.2717 12.2868 10.1658 12.4492C10.0598 12.6117 10.0035 12.8014 10.0035 12.9954C10.0035 13.1893 10.0598 13.379 10.1658 13.5415C10.2717 13.704 10.4225 13.8321 10.6 13.9104L19.18 17.8204C19.4406 17.9392 19.7236 18.0007 20.01 18.0007C20.2964 18.0007 20.5794 17.9392 20.84 17.8204L29.42 13.9204C29.5975 13.8421 29.7483 13.714 29.8542 13.5515C29.9602 13.389 30.0165 13.1993 30.0165 13.0054C30.0165 12.8114 29.9602 12.6217 29.8542 12.4592C29.7483 12.2968 29.5975 12.1686 29.42 12.0904L20.83 8.18036Z" stroke="black" stroke-width="2" stroke-linecap="round" stroke-linejoin="round"/>
</svg>
